<svg xmlns:xlink="http://www.w3.org/1999/xlink" _ngcontent-utravs-ssr-c44="" xmlns="http://www.w3.org/2000/svg" width="33.335" height="20" viewBox="0 0 33.335 20" class="item-icon"><path _ngcontent-utravs-ssr-c44="" d="M33.168,101.347a2.707,2.707,0,0,0-1.44-1.515,10.354,10.354,0,0,0-7.708-.325l-2.644.928-7.545-3.6a1.01,1.01,0,0,0-.767-.041l-4.5,1.581a.95.95,0,0,0-.633.756.928.928,0,0,0,.4.893l4.781,3.315-6.644,2.332L4,103.743a1,1,0,0,0-.949-.153l-2.4.843a.964.964,0,0,0-.551.487.911.911,0,0,0-.033.72l1.53,4.055a5.3,5.3,0,0,0,2.819,2.966,5.6,5.6,0,0,0,4.168.176l5.853-2.055-1.262,4.78a.921.921,0,0,0,.291.931,1,1,0,0,0,.655.243,1.008,1.008,0,0,0,.334-.057l4.5-1.581a.963.963,0,0,0,.56-.507l3.025-6.655,8.966-3.147a2.663,2.663,0,0,0,1.664-3.442Zm-22.2-1.812L13.34,98.7l5.5,2.625-3.513,1.233Zm19.871,3.484L21.477,106.3a.963.963,0,0,0-.56.507l-3.025,6.655-2.376.834,1.262-4.78a.921.921,0,0,0-.291-.931,1,1,0,0,0-.655-.243,1.009,1.009,0,0,0-.334.057l-7.59,2.664a3.593,3.593,0,0,1-2.674-.113,3.4,3.4,0,0,1-1.808-1.9l-1.2-3.17.965-.339L5.66,107.47a1.006,1.006,0,0,0,.949.153l18.079-6.346a8.347,8.347,0,0,1,6.214.262.808.808,0,0,1,.43.452A.8.8,0,0,1,30.835,103.019Z" transform="translate(-0.001 -96.736)" fill="#2B475A"></path></svg>